<svg xmlns="http://www.w3.org/2000/svg" viewBox="0 0 512 512" role="img" aria-labelledby="title desc">
  <title id="title">Latin Sprint</title>
  <desc id="desc">A cream Latin letter L on a dark green shield with coral laurels</desc>
  <rect width="512" height="512" rx="116" fill="#123c3a"/>
  <path d="M117 137c-38 52-52 110-40 171 10 50 38 91 83 123" fill="none" stroke="#ff795f" stroke-width="25" stroke-linecap="round"/>
  <path d="M395 137c38 52 52 110 40 171-10 50-38 91-83 123" fill="none" stroke="#ff795f" stroke-width="25" stroke-linecap="round"/>
  <g fill="#ffb294">
    <ellipse cx="105" cy="188" rx="18" ry="35" transform="rotate(-29 105 188)"/>
    <ellipse cx="85" cy="252" rx="18" ry="35" transform="rotate(-8 85 252)"/>
    <ellipse cx="104" cy="324" rx="18" ry="35" transform="rotate(20 104 324)"/>
    <ellipse cx="407" cy="188" rx="18" ry="35" transform="rotate(29 407 188)"/>
    <ellipse cx="427" cy="252" rx="18" ry="35" transform="rotate(8 427 252)"/>
    <ellipse cx="408" cy="324" rx="18" ry="35" transform="rotate(-20 408 324)"/>
  </g>
  <path d="M194 128h73v211h87v66H194z" fill="#fff8e9"/>
</svg>
